<?xml version="1.0" standalone="no"?>
<!DOCTYPE svg PUBLIC "-//W3C//DTD SVG 20010904//EN"
 "http://www.w3.org/TR/2001/REC-SVG-20010904/DTD/svg10.dtd">
<svg version="1.0" xmlns="http://www.w3.org/2000/svg"
 width="256.000000pt" height="256.000000pt" viewBox="0 0 256.000000 256.000000"
 preserveAspectRatio="xMidYMid meet">
<metadata>
Created by potrace 1.14, written by Peter Selinger 2001-2017
</metadata>
<g transform="translate(0.000000,256.000000) scale(0.100000,-0.100000)"
fill="#000000" stroke="none">
<path d="M1008 2130 c-124 -15 -213 -56 -292 -136 -119 -121 -152 -366 -72
-537 58 -121 150 -191 397 -298 282 -122 354 -167 406 -256 21 -36 27 -63 31
-123 6 -98 -15 -171 -64 -228 -114 -134 -360 -131 -500 5 -87 85 -173 239
-254 453 -26 68 -52 126 -59 128 -8 3 -11 -86 -11 -337 0 -188 4 -341 8 -341
4 0 25 9 47 20 55 28 114 25 252 -12 105 -28 134 -31 258 -32 109 -1 153 3
200 18 69 21 138 55 179 88 26 22 28 29 30 99 1 62 6 82 29 122 15 26 46 59
68 74 36 24 39 29 39 74 0 125 -46 237 -134 324 -70 68 -132 104 -365 204
-191 83 -265 125 -316 182 -56 62 -69 101 -70 204 0 79 3 97 28 148 47 94 126
137 252 137 93 0 147 -23 224 -95 97 -92 184 -252 253 -462 42 -133 48 -105
48 242 0 173 -3 315 -6 315 -4 0 -22 -10 -41 -21 -46 -29 -107 -27 -219 5 -77
23 -236 49 -269 45 -5 -1 -40 -5 -77 -9z"/>
<path d="M1715 787 c-47 -26 -85 -92 -85 -147 0 -49 38 -120 79 -147 48 -32
144 -32 192 0 41 27 79 98 79 147 0 55 -38 121 -85 147 -54 30 -126 30 -180 0z"/>
</g>
</svg>
