<?xml version="1.0" standalone="no"?>
<!DOCTYPE svg PUBLIC "-//W3C//DTD SVG 20010904//EN"
 "http://www.w3.org/TR/2001/REC-SVG-20010904/DTD/svg10.dtd">
<svg version="1.0" xmlns="http://www.w3.org/2000/svg"
 width="256.000000pt" height="256.000000pt" viewBox="0 0 256.000000 256.000000"
 preserveAspectRatio="xMidYMid meet">
<metadata>
Created by potrace 1.14, written by Peter Selinger 2001-2017
</metadata>
<g transform="translate(0.000000,256.000000) scale(0.100000,-0.100000)"
fill="#000000" stroke="none">
<path d="M960 2154 c-232 -45 -365 -199 -378 -437 -9 -171 32 -282 142 -385
71 -66 138 -103 365 -201 184 -80 258 -122 315 -178 61 -60 81 -112 80 -218 0
-79 -3 -98 -27 -147 -52 -107 -145 -158 -287 -158 -138 0 -244 58 -337 183
-69 95 -171 313 -238 515 -2 6 -11 12 -20 12 -13 0 -15 -42 -15 -349 0 -203 4
-352 9 -356 5 -3 31 6 57 20 62 33 90 32 251 -10 275 -71 503 -49 646 62 l49
38 2 75 c1 54 8 86 23 116 22 40 85 104 103 104 6 0 10 33 10 74 0 150 -69
281 -192 369 -78 55 -92 62 -311 158 -205 89 -254 116 -315 173 -65 60 -85
105 -90 207 -7 148 49 255 156 296 70 27 202 24 264 -6 134 -65 235 -213 339
-496 28 -77 53 -130 61 -130 10 0 14 63 16 323 3 359 8 337 -69 302 -59 -27
-87 -25 -209 11 -90 27 -124 31 -240 34 -74 2 -146 1 -160 -1z"/>
<path d="M1755 785 c-145 -51 -151 -272 -8 -331 84 -36 191 -1 230 75 56 107
6 230 -105 261 -48 13 -68 12 -117 -5z"/>
</g>
</svg>
