<svg width="20" height="20" viewBox="0 0 20 20" fill="none" xmlns="http://www.w3.org/2000/svg">
<path d="M12.4076 9.99999C12.6672 9.62113 12.9355 9.22939 13.2006 8.82549C14.0877 7.47407 14.2505 6.11237 13.6846 4.77814C12.5427 2.08611 8.72575 0.445889 7.84209 0.184186L7.22073 0L6.25093 1.72399L6.71893 2.06376C6.72417 2.06749 7.244 2.47114 7.27865 3.08305C7.30824 3.60541 6.986 4.16988 6.32112 4.7609C5.85939 5.17118 5.35264 5.5679 4.8161 5.98787C2.55865 7.75456 0 9.75754 0 13.5467C0 13.5988 0.000550676 13.6505 0.00165204 13.7019C0.0180119 14.5381 0.2201 15.3631 0.596308 16.1297C0.972516 16.8963 1.51543 17.5892 2.19387 18.1688C3.55621 19.3463 5.38285 20.0036 7.28332 20H11.6306L11.0939 19.0322C8.91356 15.0997 10.4555 12.8492 12.4076 9.99999ZM7.28332 18.6577C4.15859 18.6577 1.56959 16.4233 1.51181 13.677C1.51093 13.6338 1.51048 13.5904 1.51045 13.5467C1.51045 10.3639 3.69851 8.65104 5.81455 6.99471C6.34505 6.57944 6.89367 6.14999 7.38914 5.7096C8.36876 4.83909 8.83912 3.93255 8.7872 3.01531C8.76454 2.62659 8.64843 2.2467 8.44669 1.90121C9.76078 2.53926 11.6339 3.74907 12.2713 5.25176C12.6746 6.20247 12.5518 7.15024 11.896 8.14936C11.638 8.54236 11.3734 8.92856 11.1175 9.30209C9.24449 12.0357 7.46773 14.6285 9.2553 18.6577H7.28332Z" fill="#F2C94C"/>
<path d="M19.8228 13.5037C19.8103 13.4594 19.7971 13.4148 19.7835 13.3701C19.2385 11.5944 16.2218 9.31131 15.8796 9.05683L15.1925 8.54584L14.7419 9.23409C13.7152 10.8029 12.834 12.2338 12.4499 13.8571C12.0119 15.7083 12.3067 17.5898 13.3514 19.6092L13.5535 20H14.067C14.9713 20.0023 15.8642 19.8201 16.6768 19.4674C17.4895 19.1146 18.2001 18.6009 18.7541 17.9656C19.3046 17.3442 19.6873 16.6187 19.8726 15.8451C20.0579 15.0716 20.0409 14.2705 19.8228 13.5037ZM17.5628 17.1397C17.1968 17.5597 16.7383 17.9091 16.2154 18.1666C15.6924 18.424 15.116 18.5842 14.5212 18.6372C13.0324 15.4535 13.9108 13.2834 15.5894 10.6207C16.7053 11.5433 18.0653 12.8728 18.3262 13.7231C18.3372 13.759 18.3477 13.7947 18.3578 13.8302C18.5192 14.3991 18.5314 14.9934 18.3936 15.5672C18.2558 16.141 17.9716 16.679 17.5628 17.1397Z" fill="#F2C94C"/>
</svg>
