<svg width="124" height="30" viewBox="0 0 124 30" fill="none" xmlns="http://www.w3.org/2000/svg">
<g clip-path="url(#clip0_8877_496)">
<path d="M4.07 15.99C4.83 17.53 5.73 18.63 6.77 19.29C7.81 19.93 9.04 20.25 10.46 20.25C12 20.25 13.2 20.01 14.06 19.53C14.92 19.05 15.35 18.31 15.35 17.31C15.35 16.27 14.9 15.43 14 14.79C13.1 14.15 11.67 13.64 9.71 13.26L8.09 12.93C5.87 12.49 4.16 11.67 2.96 10.47C1.76 9.25 1.16 7.69 1.16 5.79C1.16 4.59 1.51 3.56 2.21 2.7C2.91 1.82 3.86 1.15 5.06 0.69C6.26 0.23 7.6 0 9.08 0C11.46 0 13.35 0.489999 14.75 1.47C16.15 2.43 17.3 3.96 18.2 6.06L15.02 7.53C14.38 6.23 13.56 5.26 12.56 4.62C11.58 3.98 10.36 3.66 8.9 3.66C7.66 3.66 6.68 3.87 5.96 4.29C5.26 4.71 4.91 5.39 4.91 6.33C4.91 7.19 5.26 7.85 5.96 8.31C6.68 8.77 7.81 9.18 9.35 9.54L10.76 9.87C12.78 10.35 14.4 10.96 15.62 11.7C16.86 12.42 17.75 13.27 18.29 14.25C18.85 15.23 19.12 16.37 19.1 17.67C19.08 19.75 18.27 21.33 16.67 22.41C15.09 23.47 12.96 24 10.28 24C7.88 24 5.93 23.48 4.43 22.44C2.93 21.4 1.62 19.8 0.5 17.64L4.07 15.99ZM38.4418 20.01C37.6418 21.51 36.5718 22.63 35.2318 23.37C33.9118 24.09 32.4518 24.45 30.8518 24.45C29.2518 24.45 27.7818 24.06 26.4418 23.28C25.1218 22.48 24.0618 21.41 23.2618 20.07C22.4818 18.71 22.0918 17.23 22.0918 15.63C22.0918 14.03 22.4818 12.56 23.2618 11.22C24.0618 9.88 25.1318 8.82 26.4718 8.04C27.8118 7.24 29.2718 6.84 30.8518 6.84C32.5118 6.84 33.9818 7.26 35.2618 8.1C36.5418 8.94 37.5218 10.12 38.2018 11.64C38.9018 13.14 39.2218 14.86 39.1618 16.8H35.5918C35.7718 15.5 35.6718 14.38 35.2918 13.44C34.9118 12.48 34.3218 11.75 33.5218 11.25C32.7418 10.75 31.8518 10.5 30.8518 10.5C29.8518 10.5 28.9618 10.73 28.1818 11.19C27.4218 11.65 26.8318 12.27 26.4118 13.05C26.0118 13.83 25.8118 14.69 25.8118 15.63C25.8118 16.61 26.0118 17.49 26.4118 18.27C26.8318 19.05 27.4218 19.66 28.1818 20.1C28.9418 20.52 29.8318 20.73 30.8518 20.73C31.8918 20.73 32.8318 20.53 33.6718 20.13C34.5318 19.73 35.2718 19.11 35.8918 18.27L38.4418 20.01ZM37.7518 14.28V16.8H25.5718V14.28H37.7518ZM53.4983 24C50.5383 24 48.4283 23.76 47.1683 23.28C45.9283 22.8 45.1383 22 44.7983 20.88C44.4583 19.74 44.2883 17.85 44.2883 15.21H48.0383C48.0383 16.99 48.1283 18.19 48.3083 18.81C48.5083 19.43 48.9383 19.83 49.5983 20.01C50.2583 20.17 51.5583 20.25 53.4983 20.25V24ZM44.2883 1.2H48.0383V15.21H44.2883V1.2ZM40.9883 7.02H53.4683V10.86H40.9883V7.02ZM68.9963 24C66.0363 24 63.9263 23.76 62.6663 23.28C61.4263 22.8 60.6363 22 60.2963 20.88C59.9563 19.74 59.7863 17.85 59.7863 15.21H63.5363C63.5363 16.99 63.6263 18.19 63.8063 18.81C64.0063 19.43 64.4363 19.83 65.0963 20.01C65.7563 20.17 67.0563 20.25 68.9963 20.25V24ZM59.7863 1.2H63.5363V15.21H59.7863V1.2ZM56.4863 7.02H68.9663V10.86H56.4863V7.02ZM72.8926 0H76.6426V24H72.8926V0ZM95.9809 20.01C95.1809 21.51 94.1109 22.63 92.7709 23.37C91.4509 24.09 89.9909 24.45 88.3909 24.45C86.7909 24.45 85.3209 24.06 83.9809 23.28C82.6609 22.48 81.6009 21.41 80.8009 20.07C80.0209 18.71 79.6309 17.23 79.6309 15.63C79.6309 14.03 80.0209 12.56 80.8009 11.22C81.6009 9.88 82.6709 8.82 84.0109 8.04C85.3509 7.24 86.8109 6.84 88.3909 6.84C90.0509 6.84 91.5209 7.26 92.8009 8.1C94.0809 8.94 95.0609 10.12 95.7409 11.64C96.4409 13.14 96.7609 14.86 96.7009 16.8H93.1309C93.3109 15.5 93.2109 14.38 92.8309 13.44C92.4509 12.48 91.8609 11.75 91.0609 11.25C90.2809 10.75 89.3909 10.5 88.3909 10.5C87.3909 10.5 86.5009 10.73 85.7209 11.19C84.9609 11.65 84.3709 12.27 83.9509 13.05C83.5509 13.83 83.3509 14.69 83.3509 15.63C83.3509 16.61 83.5509 17.49 83.9509 18.27C84.3709 19.05 84.9609 19.66 85.7209 20.1C86.4809 20.52 87.3709 20.73 88.3909 20.73C89.4309 20.73 90.3709 20.53 91.2109 20.13C92.0709 19.73 92.8109 19.11 93.4309 18.27L95.9809 20.01ZM95.2909 14.28V16.8H83.1109V14.28H95.2909ZM98.8203 7.02H102.69L107.1 24H103.23L98.8203 7.02ZM106.32 21.66H108.39L108.27 24H106.44L106.32 21.66ZM100.77 26.43H101.01C103.11 26.43 104.54 26.36 105.3 26.22C106.06 26.08 106.62 25.75 106.98 25.23C107.34 24.71 107.69 23.71 108.03 22.23L111.69 7.02H115.56L111.93 22.23C111.45 24.25 110.76 25.81 109.86 26.91C108.98 28.01 107.81 28.8 106.35 29.28C104.89 29.76 103.03 30 100.77 30V26.43Z" fill="#272343"/>
<path d="M120.996 24.0002C120.316 24.0002 119.736 23.7702 119.256 23.3102C118.796 22.8302 118.566 22.2502 118.566 21.5702C118.566 20.9102 118.796 20.3502 119.256 19.8902C119.736 19.4302 120.316 19.2002 120.996 19.2002C121.656 19.2002 122.216 19.4302 122.676 19.8902C123.136 20.3502 123.366 20.9102 123.366 21.5702C123.366 22.2502 123.136 22.8302 122.676 23.3102C122.216 23.7702 121.656 24.0002 120.996 24.0002Z" fill="#FF7C03"/>
</g>
<defs>
<clipPath id="clip0_8877_496">
<rect width="124" height="30" fill="white"/>
</clipPath>
</defs>
</svg>
