<svg width="571" height="259" viewBox="0 0 571 259" fill="none" xmlns="http://www.w3.org/2000/svg">
<g clipPath="url(#clip0_36_9)">
<mask id="mask0_36_9" style="mask-type:alpha" maskUnits="userSpaceOnUse" x="4" y="24" width="548" height="219">
<path d="M4.8 81V25.08H31.92L53.04 59.88L74.16 25.08H100.4V81H81.52V42.28L57.44 81H47.2L23.2 42.28V81H4.8ZM150.594 24.04H153.234C158.514 24.04 163.314 24.3867 167.634 25.08C171.954 25.7733 175.581 26.68 178.514 27.8C181.448 28.8667 184.008 30.2 186.194 31.8C188.381 33.4 190.088 35.0267 191.314 36.68C192.541 38.28 193.528 40.04 194.274 41.96C195.074 43.8267 195.581 45.5067 195.794 47C196.008 48.4933 196.114 50.0667 196.114 51.72V54.04C196.114 55.64 196.008 57.1867 195.794 58.68C195.581 60.1733 195.074 61.9067 194.274 63.88C193.528 65.8 192.541 67.5867 191.314 69.24C190.141 70.84 188.434 72.4667 186.194 74.12C184.008 75.72 181.448 77.08 178.514 78.2C175.634 79.32 172.008 80.2533 167.634 81C163.314 81.6933 158.514 82.04 153.234 82.04H150.594C145.314 82.04 140.488 81.6933 136.114 81C131.741 80.2533 128.088 79.32 125.154 78.2C122.274 77.08 119.714 75.72 117.474 74.12C115.288 72.4667 113.581 70.84 112.354 69.24C111.128 67.5867 110.141 65.8 109.394 63.88C108.648 61.9067 108.168 60.1733 107.954 58.68C107.741 57.1867 107.634 55.64 107.634 54.04V51.72C107.634 50.0667 107.741 48.52 107.954 47.08C108.168 45.5867 108.648 43.88 109.394 41.96C110.141 40.04 111.128 38.28 112.354 36.68C113.581 35.0267 115.288 33.4 117.474 31.8C119.661 30.2 122.221 28.8667 125.154 27.8C128.088 26.68 131.741 25.7733 136.114 25.08C140.488 24.3867 145.314 24.04 150.594 24.04ZM176.114 53.32V52.28C176.114 50.8933 175.901 49.5867 175.474 48.36C175.101 47.08 174.354 45.7733 173.234 44.44C172.168 43.0533 170.754 41.88 168.994 40.92C167.288 39.96 164.914 39.16 161.874 38.52C159.421 38.04 156.621 37.7467 153.474 37.64C152.568 37.64 151.714 37.64 150.914 37.64C135.394 37.9067 127.634 42.7867 127.634 52.28V53.16C127.634 54.9733 127.981 56.68 128.674 58.28C129.368 59.88 130.514 61.5067 132.114 63.16C133.768 64.76 136.328 66.0133 139.794 66.92C142.994 67.8267 146.808 68.3067 151.234 68.36C151.821 68.36 152.461 68.36 153.154 68.36C157.261 68.2533 160.808 67.8 163.794 67C167.261 66.0933 169.821 64.84 171.474 63.24C173.181 61.64 174.381 60.04 175.074 58.44C175.768 56.84 176.114 55.1333 176.114 53.32ZM203.316 25.08H224.676L263.636 60.28V25.08H282.436V81H263.636L222.196 43.96V81H203.316V25.08ZM499.184 41.96C499.877 43.7733 500.304 45.4267 500.464 46.92C500.677 48.36 500.784 49.9067 500.784 51.56V53.72C500.784 55.2667 500.677 56.7867 500.464 58.28C500.304 59.72 499.877 61.4 499.184 63.32C498.49 65.1867 497.61 66.92 496.544 68.52C495.477 70.12 493.93 71.72 491.904 73.32C489.93 74.8667 487.637 76.2 485.024 77.32C482.464 78.3867 479.237 79.2667 475.344 79.96C471.45 80.6533 467.104 81 462.304 81H328.304C323.557 81 319.21 80.6533 315.264 79.96C311.37 79.2667 308.117 78.3867 305.504 77.32C302.89 76.2 300.597 74.8667 298.624 73.32C296.65 71.72 295.104 70.12 293.984 68.52C292.864 66.92 291.957 65.1867 291.264 63.32C290.624 61.4 290.197 59.72 289.984 58.28C289.824 56.7867 289.744 55.2667 289.744 53.72V51.56C289.744 49.9067 289.824 48.36 289.984 46.92C290.197 45.48 290.624 43.8267 291.264 41.96C291.957 40.0933 292.864 38.3867 293.984 36.84C295.104 35.24 296.624 33.6667 298.544 32.12C300.517 30.5733 302.81 29.2667 305.424 28.2C308.09 27.08 311.37 26.2 315.264 25.56C319.21 24.8667 323.557 24.52 328.304 24.52H462.304C467.104 24.52 471.424 24.8667 475.264 25.56C479.157 26.2 482.41 27.08 485.024 28.2C487.637 29.2667 489.93 30.5733 491.904 32.12C493.877 33.6667 495.397 35.24 496.464 36.84C497.584 38.3867 498.49 40.0933 499.184 41.96ZM482.864 53.08V52.04C482.864 50.6533 482.677 49.3733 482.304 48.2C481.984 46.9733 481.317 45.6933 480.304 44.36C479.344 43.0267 478.064 41.9067 476.464 41C474.917 40.04 472.81 39.2667 470.144 38.68C467.69 38.0933 464.89 37.7733 461.744 37.72C461.37 37.72 417.424 37.72 329.904 37.72C315.13 37.72 307.744 42.4933 307.744 52.04V52.92C307.744 54.68 308.037 56.36 308.624 57.96C309.264 59.5067 310.304 61.0533 311.744 62.6C313.237 64.1467 315.53 65.4 318.624 66.36C321.717 67.2667 325.477 67.72 329.904 67.72C417.424 67.72 461.37 67.72 461.744 67.72C465.637 67.6667 468.997 67.2133 471.824 66.36C474.917 65.4533 477.21 64.2267 478.704 62.68C480.25 61.1333 481.317 59.5867 481.904 58.04C482.544 56.4933 482.864 54.84 482.864 53.08ZM50.56 143.36H23.92V162H4.8V106.08H50.56C69.5467 106.08 79.04 112.133 79.04 124.24V125.04C79.04 137.253 69.5467 143.36 50.56 143.36ZM23.92 118.8V130.8H50.24C56.16 130.8 59.12 128.853 59.12 124.96V124.72C59.12 120.773 56.16 118.8 50.24 118.8H23.92ZM409.983 122.96C410.676 124.773 411.103 126.427 411.263 127.92C411.476 129.36 411.583 130.907 411.583 132.56V134.72C411.583 136.267 411.476 137.787 411.263 139.28C411.103 140.72 410.676 142.4 409.983 144.32C409.29 146.187 408.41 147.92 407.343 149.52C406.276 151.12 404.73 152.72 402.703 154.32C400.73 155.867 398.436 157.2 395.823 158.32C393.263 159.387 390.01 160.267 386.063 160.96C382.17 161.653 377.85 162 373.103 162H121.663C116.916 162 112.57 161.653 108.623 160.96C104.73 160.267 101.476 159.387 98.8631 158.32C96.2498 157.2 93.9565 155.867 91.9831 154.32C90.0098 152.72 88.4631 151.12 87.3431 149.52C86.2231 147.92 85.3165 146.187 84.6231 144.32C83.9831 142.4 83.5565 140.72 83.3431 139.28C83.1831 137.787 83.1031 136.267 83.1031 134.72V132.56C83.1031 130.907 83.1831 129.36 83.3431 127.92C83.5565 126.48 83.9831 124.827 84.6231 122.96C85.3165 121.093 86.2231 119.387 87.3431 117.84C88.4631 116.24 89.9831 114.667 91.9031 113.12C93.8765 111.573 96.1698 110.267 98.7831 109.2C101.45 108.08 104.73 107.2 108.623 106.56C112.57 105.867 116.916 105.52 121.663 105.52H373.103C377.85 105.52 382.17 105.867 386.063 106.56C389.956 107.2 393.21 108.08 395.823 109.2C398.436 110.267 400.73 111.573 402.703 113.12C404.676 114.667 406.196 116.24 407.263 117.84C408.383 119.387 409.29 121.093 409.983 122.96ZM393.663 134.08V133.04C393.663 131.653 393.476 130.373 393.103 129.2C392.783 127.973 392.116 126.693 391.103 125.36C390.143 124.027 388.863 122.907 387.263 122C385.716 121.04 383.61 120.267 380.943 119.68C378.49 119.093 375.663 118.773 372.463 118.72C372.143 118.72 289.076 118.72 123.263 118.72C108.49 118.72 101.103 123.493 101.103 133.04V133.92C101.103 135.68 101.396 137.36 101.983 138.96C102.623 140.507 103.663 142.053 105.103 143.6C106.596 145.147 108.89 146.4 111.983 147.36C115.076 148.267 118.836 148.72 123.263 148.72C289.076 148.72 372.143 148.72 372.463 148.72C376.41 148.667 379.796 148.213 382.623 147.36C385.716 146.453 388.01 145.227 389.503 143.68C391.05 142.133 392.116 140.587 392.703 139.04C393.343 137.493 393.663 135.84 393.663 134.08ZM418.863 106.08H437.983V148.08H480.383V162H418.863V106.08ZM501.055 161.28V139.92L468.815 106.08H492.255L510.895 126.4L529.935 106.08H551.215L519.935 139.92V161.28H501.055ZM4.8 186.84H45.36C51.0667 186.84 56.2133 187.187 60.8 187.88C65.3867 188.573 69.2 189.587 72.24 190.92C75.3333 192.253 77.9733 193.747 80.16 195.4C82.4 197.053 84.08 198.92 85.2 201C86.3733 203.027 87.2 205.027 87.68 207C88.2133 208.973 88.48 211.107 88.48 213.4V215.64C88.48 218.307 88.16 220.813 87.52 223.16C86.88 225.507 85.5733 227.933 83.6 230.44C81.68 232.947 79.1733 235.08 76.08 236.84C73.04 238.6 68.88 240.067 63.6 241.24C58.32 242.36 52.2667 242.92 45.44 242.92H4.8V186.84ZM23.92 200.12V229.48H43.84C60.2133 229.48 68.4 224.653 68.4 215V214.52C68.4 204.92 60.2133 200.12 43.84 200.12H23.92ZM144.643 187.56L174.323 242.92H155.603L150.323 232.84H110.483L105.203 242.92H86.4825L116.243 187.56H144.643ZM116.883 220.28H143.923L133.363 199.96H127.443L116.883 220.28ZM503.421 203.96C504.114 205.773 504.541 207.427 504.701 208.92C504.914 210.36 505.021 211.907 505.021 213.56V215.72C505.021 217.267 504.914 218.787 504.701 220.28C504.541 221.72 504.114 223.4 503.421 225.32C502.727 227.187 501.847 228.92 500.781 230.52C499.714 232.12 498.167 233.72 496.141 235.32C494.167 236.867 491.874 238.2 489.261 239.32C486.701 240.387 483.447 241.267 479.501 241.96C475.607 242.653 471.287 243 466.541 243H215.101C210.354 243 206.007 242.653 202.061 241.96C198.167 241.267 194.914 240.387 192.301 239.32C189.687 238.2 187.394 236.867 185.421 235.32C183.447 233.72 181.901 232.12 180.781 230.52C179.661 228.92 178.754 227.187 178.061 225.32C177.421 223.4 176.994 221.72 176.781 220.28C176.621 218.787 176.541 217.267 176.541 215.72V213.56C176.541 211.907 176.621 210.36 176.781 208.92C176.994 207.48 177.421 205.827 178.061 203.96C178.754 202.093 179.661 200.387 180.781 198.84C181.901 197.24 183.421 195.667 185.341 194.12C187.314 192.573 189.607 191.267 192.221 190.2C194.887 189.08 198.167 188.2 202.061 187.56C206.007 186.867 210.354 186.52 215.101 186.52H466.541C471.287 186.52 475.607 186.867 479.501 187.56C483.394 188.2 486.647 189.08 489.261 190.2C491.874 191.267 494.167 192.573 496.141 194.12C498.114 195.667 499.634 197.24 500.701 198.84C501.821 200.387 502.727 202.093 503.421 203.96ZM487.101 215.08V214.04C487.101 212.653 486.914 211.373 486.541 210.2C486.221 208.973 485.554 207.693 484.541 206.36C483.581 205.027 482.301 203.907 480.701 203C479.154 202.04 477.047 201.267 474.381 200.68C471.927 200.093 469.101 199.773 465.901 199.72C465.581 199.72 382.514 199.72 216.701 199.72C201.927 199.72 194.541 204.493 194.541 214.04V214.92C194.541 216.68 194.834 218.36 195.421 219.96C196.061 221.507 197.101 223.053 198.541 224.6C200.034 226.147 202.327 227.4 205.421 228.36C208.514 229.267 212.274 229.72 216.701 229.72C382.514 229.72 465.581 229.72 465.901 229.72C469.847 229.667 473.234 229.213 476.061 228.36C479.154 227.453 481.447 226.227 482.941 224.68C484.487 223.133 485.554 221.587 486.141 220.04C486.781 218.493 487.101 216.84 487.101 215.08Z" fill="black"/>
</mask>
<g mask="url(#mask0_36_9)">
<rect x="-708" y="-337" width="1280" height="720" fill="#2E0E71"/>
<g filter="url(#filter0_f_36_9)">
<circle cx="-121.5" cy="470.5" r="530.5" fill="#FF634E" fillOpacity="0.9"/>
</g>
</g>
</g>
<defs>
<filter id="filter0_f_36_9" x="-852" y="-260" width="1461" height="1461" filterUnits="userSpaceOnUse" colorInterpolationFilters="sRGB">
<feFlood floodOpacity="0" result="BackgroundImageFix"/>
<feBlend mode="normal" in="SourceGraphic" in2="BackgroundImageFix" result="shape"/>
<feGaussianBlur stdDeviation="100" result="effect1_foregroundBlur_36_9"/>
</filter>
<clipPath id="clip0_36_9">
<rect width="571" height="259" fill="white"/>
</clipPath>
</defs>
</svg>
