<svg width="124" height="30" viewBox="0 0 124 30" fill="none" xmlns="http://www.w3.org/2000/svg">
<g clip-path="url(#clip0_8877_24)">
<path d="M4.0654 15.99C4.82452 17.53 5.72349 18.63 6.76229 19.29C7.80109 19.93 9.02967 20.25 10.448 20.25C11.9863 20.25 13.1849 20.01 14.0439 19.53C14.9029 19.05 15.3324 18.31 15.3324 17.31C15.3324 16.27 14.8829 15.43 13.984 14.79C13.085 14.15 11.6566 13.64 9.6989 13.26L8.08077 12.93C5.86333 12.49 4.1553 11.67 2.95668 10.47C1.75806 9.25 1.15875 7.69 1.15875 5.79C1.15875 4.59 1.50835 3.56 2.20754 2.7C2.90674 1.82 3.85564 1.15 5.05426 0.69C6.25288 0.23 7.59133 0 9.06963 0C11.4469 0 13.3347 0.489999 14.7331 1.47C16.1315 2.43 17.2802 3.96 18.1791 6.06L15.0028 7.53C14.3635 6.23 13.5445 5.26 12.5456 4.62C11.5667 3.98 10.3482 3.66 8.88983 3.66C7.65126 3.66 6.67239 3.87 5.95322 4.29C5.25403 4.71 4.90443 5.39 4.90443 6.33C4.90443 7.19 5.25403 7.85 5.95322 8.31C6.67239 8.77 7.80109 9.18 9.33932 9.54L10.7477 9.87C12.7654 10.35 14.3835 10.96 15.6021 11.7C16.8407 12.42 17.7296 13.27 18.269 14.25C18.8284 15.23 19.0981 16.37 19.0781 17.67C19.0581 19.75 18.249 21.33 16.6509 22.41C15.0727 23.47 12.9452 24 10.2682 24C7.87101 24 5.92326 23.48 4.42498 22.44C2.92671 21.4 1.61822 19.8 0.499512 17.64L4.0654 15.99ZM38.3976 20.01C37.5985 21.51 36.5298 22.63 35.1913 23.37C33.8728 24.09 32.4145 24.45 30.8163 24.45C29.2182 24.45 27.7499 24.06 26.4114 23.28C25.0929 22.48 24.0342 21.41 23.2351 20.07C22.456 18.71 22.0664 17.23 22.0664 15.63C22.0664 14.03 22.456 12.56 23.2351 11.22C24.0342 9.88 25.1029 8.82 26.4414 8.04C27.7798 7.24 29.2382 6.84 30.8163 6.84C32.4744 6.84 33.9427 7.26 35.2213 8.1C36.4998 8.94 37.4787 10.12 38.1579 11.64C38.8571 13.14 39.1767 14.86 39.1168 16.8H35.5509C35.7307 15.5 35.6308 14.38 35.2512 13.44C34.8717 12.48 34.2823 11.75 33.4833 11.25C32.7042 10.75 31.8152 10.5 30.8163 10.5C29.8175 10.5 28.9285 10.73 28.1494 11.19C27.3903 11.65 26.801 12.27 26.3815 13.05C25.9819 13.83 25.7822 14.69 25.7822 15.63C25.7822 16.61 25.9819 17.49 26.3815 18.27C26.801 19.05 27.3903 19.66 28.1494 20.1C28.9085 20.52 29.7975 20.73 30.8163 20.73C31.8551 20.73 32.7941 20.53 33.6331 20.13C34.4921 19.73 35.2313 19.11 35.8505 18.27L38.3976 20.01ZM37.7084 14.28V16.8H25.5424V14.28H37.7084ZM53.4368 24C50.4802 24 48.3726 23.76 47.114 23.28C45.8755 22.8 45.0864 22 44.7468 20.88C44.4072 19.74 44.2374 17.85 44.2374 15.21H47.983C47.983 16.99 48.0729 18.19 48.2527 18.81C48.4525 19.43 48.882 19.83 49.5412 20.01C50.2005 20.17 51.499 20.25 53.4368 20.25V24ZM44.2374 1.2H47.983V15.21H44.2374V1.2ZM40.9412 7.02H53.4068V10.86H40.9412V7.02ZM68.9169 24C65.9603 24 63.8527 23.76 62.5942 23.28C61.3556 22.8 60.5665 22 60.2269 20.88C59.8873 19.74 59.7175 17.85 59.7175 15.21H63.4632C63.4632 16.99 63.5531 18.19 63.7329 18.81C63.9326 19.43 64.3621 19.83 65.0214 20.01C65.6806 20.17 66.9791 20.25 68.9169 20.25V24ZM59.7175 1.2H63.4632V15.21H59.7175V1.2ZM56.4213 7.02H68.8869V10.86H56.4213V7.02ZM72.8087 0H76.5544V24H72.8087V0ZM95.8704 20.01C95.0713 21.51 94.0026 22.63 92.6641 23.37C91.3456 24.09 89.8873 24.45 88.2892 24.45C86.691 24.45 85.2227 24.06 83.8842 23.28C82.5658 22.48 81.507 21.41 80.7079 20.07C79.9288 18.71 79.5392 17.23 79.5392 15.63C79.5392 14.03 79.9288 12.56 80.7079 11.22C81.507 9.88 82.5757 8.82 83.9142 8.04C85.2527 7.24 86.711 6.84 88.2892 6.84C89.9472 6.84 91.4156 7.26 92.6941 8.1C93.9726 8.94 94.9515 10.12 95.6307 11.64C96.3299 13.14 96.6495 14.86 96.5896 16.8H93.0237C93.2035 15.5 93.1036 14.38 92.724 13.44C92.3445 12.48 91.7551 11.75 90.9561 11.25C90.177 10.75 89.288 10.5 88.2892 10.5C87.2903 10.5 86.4013 10.73 85.6222 11.19C84.8631 11.65 84.2738 12.27 83.8543 13.05C83.4547 13.83 83.255 14.69 83.255 15.63C83.255 16.61 83.4547 17.49 83.8543 18.27C84.2738 19.05 84.8631 19.66 85.6222 20.1C86.3814 20.52 87.2703 20.73 88.2892 20.73C89.328 20.73 90.2669 20.53 91.1059 20.13C91.9649 19.73 92.7041 19.11 93.3233 18.27L95.8704 20.01ZM95.1812 14.28V16.8H83.0152V14.28H95.1812ZM98.7065 7.02H102.572L106.977 24H103.111L98.7065 7.02ZM106.198 21.66H108.265L108.145 24H106.317L106.198 21.66ZM100.654 26.43H100.894C102.991 26.43 104.42 26.36 105.179 26.22C105.938 26.08 106.497 25.75 106.857 25.23C107.216 24.71 107.566 23.71 107.906 22.23L111.561 7.02H115.427L111.801 22.23C111.322 24.25 110.632 25.81 109.734 26.91C108.855 28.01 107.686 28.8 106.228 29.28C104.769 29.76 102.911 30 100.654 30V26.43Z" fill="#F4F4F4"/>
<path d="M120.857 24.0002C120.177 24.0002 119.598 23.7702 119.119 23.3102C118.659 22.8302 118.429 22.2502 118.429 21.5702C118.429 20.9102 118.659 20.3502 119.119 19.8902C119.598 19.4302 120.177 19.2002 120.857 19.2002C121.516 19.2002 122.075 19.4302 122.535 19.8902C122.994 20.3502 123.224 20.9102 123.224 21.5702C123.224 22.2502 122.994 22.8302 122.535 23.3102C122.075 23.7702 121.516 24.0002 120.857 24.0002Z" fill="#FF7C03"/>
</g>
<defs>
<clipPath id="clip0_8877_24">
<rect width="123.857" height="30" fill="white"/>
</clipPath>
</defs>
</svg>
