<svg width="123" height="36" viewBox="0 0 123 36" fill="none" xmlns="http://www.w3.org/2000/svg">
<path d="M9.95703 28.4688C4.68359 28.4688 3.12109 26.0273 0.523438 28H0.132812V16.6328H0.582031C3.51172 25.1094 6.08984 28.0781 10.0742 28.0781C13.375 28.0781 15.3477 26.2617 15.3477 23.0391C15.3477 20.0312 13.4922 18.7617 9.9375 17.2578L6.48047 15.793C2.76953 14.2305 0.367188 12.1406 0.367188 7.94141C0.367188 3.13672 3.43359 0.1875 8.86328 0.1875C13.5312 0.1875 14.9961 2.47266 17.3789 0.65625H17.7695V11.1445H17.3203C14.7617 3.27344 12.2227 0.578125 8.76562 0.578125C5.69922 0.578125 3.98047 2.27734 3.98047 5.38281C3.98047 8.33203 5.67969 9.67969 9.37109 11.2227L12.8281 12.668C16.3633 14.1328 19.0586 16.2812 19.0586 20.5391C19.0586 25.4023 15.4453 28.4688 9.95703 28.4688ZM38.1211 20.9883L38.5312 21.0664C37.9648 25.7734 35.0938 28.4688 30.4062 28.4688C24.7812 28.4688 21.7148 24.6797 21.7148 17.8242V17.6094C21.7148 10.7539 24.7227 7.02344 30.4062 7.02344C35.5234 7.02344 38.4531 10.1875 38.4531 15.5977C38.4531 16.0273 38.4336 16.418 38.3945 16.8477H26.4805C26.5781 23.1562 28.4141 26.0664 32.3984 26.0664C35.5234 26.0664 37.418 24.4062 38.1211 20.9883ZM30.2109 7.41406C27.7305 7.41406 26.4805 9.95312 26.4805 15.9688V16.2617H31.9102C33.3945 16.2617 33.7656 15.793 33.7656 14.2109V13.918C33.7656 9.5625 32.5156 7.41406 30.2109 7.41406ZM47.7305 28.4688C44.6836 28.4688 42.9648 26.7695 42.9648 23.7227V8.07812H40.0742V7.49219C44.8984 7.49219 46.7734 6.18359 47.2227 1.24219H47.7305V7.49219H51.4023V8.07812H47.7305V23.5078C47.7305 25.5586 48.6094 26.2227 50.1133 26.2227C51.2656 26.2227 52.1641 25.7344 52.8672 24.8555L53.1406 25.1094C51.8125 27.5898 49.8594 28.4688 47.7305 28.4688ZM60.1523 28.4688C57.1055 28.4688 55.3867 26.7695 55.3867 23.7227V8.07812H52.4961V7.49219C57.3203 7.49219 59.1953 6.18359 59.6445 1.24219H60.1523V7.49219H65.5234V8.07812H60.1523V23.5078C60.1523 25.5586 61.0312 26.2227 62.5352 26.2227C63.6875 26.2227 64.5859 25.7344 65.2891 24.8555L65.5625 25.1094C64.2344 27.5898 62.2812 28.4688 60.1523 28.4688ZM75.7383 28H66.5391V27.6094C68.4727 27.4141 68.7656 27.1211 68.7656 25.4609V4.97266C68.7656 3.3125 68.4727 3 66.5391 2.82422V2.43359C69.8008 2.10156 71.7539 1.59375 73.1211 0.265625H73.5117V25.4609C73.5117 27.1211 73.8047 27.4141 75.7383 27.6094V28ZM94.293 20.9883L94.7031 21.0664C94.1367 25.7734 91.2656 28.4688 86.5781 28.4688C80.9531 28.4688 77.8867 24.6797 77.8867 17.8242V17.6094C77.8867 10.7539 80.8945 7.02344 86.5781 7.02344C91.6953 7.02344 94.625 10.1875 94.625 15.5977C94.625 16.0273 94.6055 16.418 94.5664 16.8477H82.6523C82.75 23.1562 84.5859 26.0664 88.5703 26.0664C91.6953 26.0664 93.5898 24.4062 94.293 20.9883ZM86.3828 7.41406C83.9023 7.41406 82.6523 9.95312 82.6523 15.9688V16.2617H88.082C89.5664 16.2617 89.9375 15.793 89.9375 14.2109V13.918C89.9375 9.5625 88.6875 7.41406 86.3828 7.41406ZM100.172 35.2656C98.5703 35.2852 97.5742 34.4453 97.5742 33.0391C97.5742 31.6914 98.4531 30.8711 99.957 30.8711C101.949 30.8711 103.707 32.1406 104.488 30.2656L105.289 28.4297L97.9062 10.0312C97.3203 8.54688 97.0273 8.15625 95.9727 7.88281V7.49219H105.113V7.88281C102.652 8.07812 102.359 8.37109 103.238 10.7344L105.875 17.7656C106.305 18.9375 106.754 20.3438 107.262 22.1406H107.652C108.219 20.4023 108.688 19.0547 109.098 18L110.641 13.8203C112.184 9.62109 111.461 8.11719 108.922 7.88281V7.49219H114.488V7.88281C113.453 8.41016 112.809 9.62109 111.637 12.8047L106.383 27.1211C104.195 33.3125 102.711 35.2656 100.172 35.2656Z" fill="black"/>
<path d="M119 28.3711C117.203 28.3711 115.934 27.1211 115.934 25.3828C115.934 23.625 117.203 22.375 119 22.375C120.758 22.375 122.027 23.625 122.027 25.3828C122.027 27.1211 120.758 28.3711 119 28.3711Z" fill="#272343"/>
</svg>
