<svg width="246" height="74" viewBox="0 0 246 74" fill="none" xmlns="http://www.w3.org/2000/svg">
<path d="M12.9056 51.0865C5.97813 51.0865 3.92555 47.885 0.513144 50.4718H0V35.5655H0.590116C4.4387 46.6812 7.82545 50.5743 13.0595 50.5743C17.3956 50.5743 19.987 48.1923 19.987 43.9663C19.987 40.022 17.5495 38.3572 12.8799 36.3851L8.33859 34.4642C3.46372 32.4152 0.307886 29.6747 0.307886 24.1681C0.307886 17.8674 4.33607 14 11.4688 14C17.6008 14 19.5251 16.9966 22.6553 14.6147H23.1685V28.3685H22.5783C19.2172 18.0467 15.8818 14.5122 11.3405 14.5122C7.3123 14.5122 5.05447 16.7405 5.05447 20.8129C5.05447 24.6803 7.28664 26.4475 12.1359 28.4709L16.6772 30.3662C21.3211 32.2871 24.8618 35.1045 24.8618 40.6879C24.8618 47.0654 20.1152 51.0865 12.9056 51.0865Z" fill="black"/>
<path d="M49.9033 41.277L50.4421 41.3795C49.698 47.552 45.9264 51.0865 39.7687 51.0865C32.3794 51.0865 28.3512 46.1177 28.3512 37.1278V36.8461C28.3512 27.8562 32.3024 22.9643 39.7687 22.9643C46.4908 22.9643 50.3394 27.1135 50.3394 34.208C50.3394 34.7715 50.3138 35.2838 50.2625 35.8472H34.6116C34.7398 44.12 37.1516 47.9362 42.3857 47.9362C46.4908 47.9362 48.9796 45.7592 49.9033 41.277ZM39.5121 23.4765C36.2536 23.4765 34.6116 26.8061 34.6116 34.6947V35.0789H41.7443C43.6942 35.0789 44.1817 34.4642 44.1817 32.3896V32.0054C44.1817 26.2939 42.5396 23.4765 39.5121 23.4765Z" fill="black"/>
<path d="M62.5266 51.0865C58.5241 51.0865 56.2662 48.8582 56.2662 44.8627V24.3473H52.469V23.579C58.8063 23.579 61.2694 21.863 61.8595 15.3831H62.5266V23.579H67.3501V24.3473H62.5266V44.581C62.5266 47.2703 63.6812 48.1411 65.6568 48.1411C67.1705 48.1411 68.3508 47.5008 69.2744 46.3482L69.6336 46.6812C67.889 49.934 65.3232 51.0865 62.5266 51.0865Z" fill="black"/>
<path d="M78.8446 51.0865C74.842 51.0865 72.5842 48.8582 72.5842 44.8627V24.3473H68.7869V23.579C75.1243 23.579 77.5874 21.863 78.1775 15.3831H78.8446V23.579H85.9003V24.3473H78.8446V44.581C78.8446 47.2703 79.9991 48.1411 81.9748 48.1411C83.4885 48.1411 84.6688 47.5008 85.5924 46.3482L85.9516 46.6812C84.2069 49.934 81.6412 51.0865 78.8446 51.0865Z" fill="black"/>
<path d="M99.319 50.4718H87.2345V49.9596C89.7745 49.7034 90.1594 49.3193 90.1594 47.1422V20.275C90.1594 18.098 89.7745 17.6882 87.2345 17.4577V16.9454C91.5192 16.51 94.0849 15.8441 95.881 14.1024H96.3941V47.1422C96.3941 49.3193 96.779 49.7034 99.319 49.9596V50.4718Z" fill="black"/>
<path d="M123.693 41.277L124.232 41.3795C123.488 47.552 119.716 51.0865 113.559 51.0865C106.169 51.0865 102.141 46.1177 102.141 37.1278V36.8461C102.141 27.8562 106.093 22.9643 113.559 22.9643C120.281 22.9643 124.13 27.1135 124.13 34.208C124.13 34.7715 124.104 35.2838 124.053 35.8472H108.402C108.53 44.12 110.942 47.9362 116.176 47.9362C120.281 47.9362 122.77 45.7592 123.693 41.277ZM113.302 23.4765C110.044 23.4765 108.402 26.8061 108.402 34.6947V35.0789H115.534C117.484 35.0789 117.972 34.4642 117.972 32.3896V32.0054C117.972 26.2939 116.33 23.4765 113.302 23.4765Z" fill="black"/>
<path d="M131.416 59.9996C129.312 60.0252 128.004 58.9239 128.004 57.0798C128.004 55.3125 129.158 54.2368 131.134 54.2368C133.751 54.2368 136.06 55.9016 137.086 53.4428L138.138 51.0353L128.44 26.9086C127.67 24.962 127.285 24.4498 125.9 24.0912V23.579H137.907V24.0912C134.675 24.3473 134.29 24.7315 135.444 27.8306L138.908 37.051C139.473 38.5877 140.063 40.4318 140.73 42.7881H141.243C141.987 40.5087 142.603 38.7414 143.142 37.3584L145.168 31.8773C147.195 26.3707 146.246 24.3986 142.911 24.0912V23.579H150.223V24.0912C148.863 24.7827 148.016 26.3707 146.477 30.5455L139.575 49.3193C136.702 57.4383 134.752 59.9996 131.416 59.9996Z" fill="black"/>
<path d="M156.15 50.9584C153.789 50.9584 152.122 49.3193 152.122 47.0398C152.122 44.7347 153.789 43.0955 156.15 43.0955C158.459 43.0955 160.127 44.7347 160.127 47.0398C160.127 49.3193 158.459 50.9584 156.15 50.9584Z" fill="black"/>
<rect x="172.127" y="14" width="73" height="24" rx="6" fill="#FFBE81"/>
<path d="M189.275 32V20.3636H193.729C194.57 20.3636 195.269 20.4962 195.826 20.7614C196.386 21.0227 196.805 21.3807 197.081 21.8352C197.362 22.2898 197.502 22.8049 197.502 23.3807C197.502 23.8542 197.411 24.2595 197.229 24.5966C197.047 24.9299 196.803 25.2008 196.496 25.4091C196.189 25.6174 195.847 25.767 195.468 25.858V25.9716C195.881 25.9943 196.277 26.1212 196.655 26.3523C197.038 26.5795 197.35 26.9015 197.593 27.3182C197.835 27.7348 197.956 28.2386 197.956 28.8295C197.956 29.4318 197.811 29.9735 197.519 30.4545C197.227 30.9318 196.788 31.3087 196.201 31.5852C195.614 31.8617 194.875 32 193.985 32H189.275ZM191.383 30.2386H193.65C194.415 30.2386 194.966 30.0928 195.303 29.8011C195.644 29.5057 195.814 29.1269 195.814 28.6648C195.814 28.3201 195.729 28.0095 195.559 27.733C195.388 27.4527 195.146 27.233 194.831 27.0739C194.517 26.911 194.142 26.8295 193.706 26.8295H191.383V30.2386ZM191.383 25.3125H193.468C193.831 25.3125 194.159 25.2462 194.451 25.1136C194.742 24.9773 194.972 24.786 195.138 24.5398C195.309 24.2898 195.394 23.9943 195.394 23.6534C195.394 23.2027 195.235 22.8314 194.917 22.5398C194.602 22.2481 194.135 22.1023 193.513 22.1023H191.383V25.3125ZM199.79 32V20.3636H207.358V22.1307H201.898V25.2898H206.966V27.0568H201.898V30.233H207.404V32H199.79ZM208.998 22.1307V20.3636H218.282V22.1307H214.685V32H212.594V22.1307H208.998ZM220.16 32H217.91L222.006 20.3636H224.608L228.711 32H226.461L223.353 22.75H223.262L220.16 32ZM220.233 27.4375H226.37V29.1307H220.233V27.4375Z" fill="black"/>
</svg>
