<svg width="31" height="47" viewBox="0 0 31 47" fill="none" xmlns="http://www.w3.org/2000/svg">
<path d="M25.317 7.45269C25.317 7.45269 25.9772 10.2538 23.8669 10.6415C22.4022 10.8995 20.0339 9.44207 18.8417 7.99193C17.3697 6.20077 17.5592 4.78853 18.6974 3.54389C20.4128 1.63905 23.3583 2.37505 23.3583 2.37505C23.3583 2.37505 17.9687 -2.34699 12.3591 1.52537C7.36455 4.96342 8.79865 9.64756 13.3079 13.7385C17.3683 17.4345 14.1284 21.4891 10.0287 20.9644C7.22755 20.6073 6.08202 18.3527 6.74952 16.9711C7.33394 15.7862 9.34518 15.0575 9.34518 15.0575C9.34518 15.0575 7.02934 14.1233 4.31272 15.1493C1.86134 16.0675 -0.151356 18.0875 0.00895964 23.1578V46.6281C0.00895964 46.6281 2.53612 43.5165 5.51217 40.3422C8.83654 36.7672 10.3552 34.3537 13.7714 34.6335C20.2394 35.0358 24.9148 32.1588 28.0949 27.5519C34.1985 18.6865 29.4153 8.7804 25.317 7.45123V7.45269Z" fill="url(#paint0_linear_10_34)"/>
<defs>
<linearGradient id="paint0_linear_10_34" x1="15.5" y1="0" x2="15.5" y2="46.6281" gradientUnits="userSpaceOnUse">
<stop stop-color="#8EA7FF"/>
<stop offset="1" stop-color="#6AFF67"/>
</linearGradient>
</defs>
</svg>
